<svg xmlns="http://www.w3.org/2000/svg" version="1.0" width="14.000000pt" height="14.000000pt" viewBox="0 0 14.000000 14.000000" preserveAspectRatio="xMidYMid meet">
    <g transform="translate(0.000000,14.000000) scale(0.001556,-0.001429)" fill="#000000" stroke="none">
        <path d="M4506 9790 c-446 -51 -846 -243 -1160 -556 -50 -50 -337 -399 -662 -804 -315 -393 -952 -1187 -1415 -1765 -463 -577 -852 -1067 -865 -1087 -45 -71 -74 -178 -74 -275 0 -150 51 -274 155 -378 196 -196 515 -208 723 -27 24 20 681 834 1461 1807 1092 1364 1433 1783 1485 1827 81 68 214 139 316 168 105 30 298 38 403 16 97 -20 192 -57 276 -108 91 -55 2142 -1698 2221 -1779 249 -255 307 -646 146 -974 -47 -96 125 121 -2811 -3543 -853 -1065 -849 -1061 -1014 -1146 -121 -63 -212 -87 -355 -93 -133 -7 -221 5 -331 44 -141 50 -153 59 -695 495 -392 315 -447 369 -519 507 -137 263 -131 574 15 836 44 78 2549 3203 2593 3234 121 86 265 101 393 41 55 -25 298 -218 332 -262 93 -123 108 -282 37 -413 -15 -27 -435 -559 -933 -1181 -498 -622 -917 -1153 -931 -1180 -40 -80 -57 -151 -57 -244 0 -136 46 -259 134 -357 197 -219 549 -233 759 -31 30 29 300 359 599 733 299 374 707 883 906 1132 199 248 381 482 406 520 91 142 165 321 202 493 26 121 27 448 1 570 -61 283 -190 529 -382 725 -85 86 -323 281 -440 360 -142 95 -327 171 -516 212 -119 26 -439 26 -559 0 -298 -64 -552 -202 -753 -411 -105 -109 -2573 -3191 -2654 -3315 -181 -275 -293 -611 -312 -941 -35 -602 206 -1184 650 -1566 180 -155 895 -720 979 -773 278 -178 610 -282 950 -298 580 -26 1161 222 1532 654 47 54 682 845 1413 1758 731 913 1511 1886 1732 2163 419 522 497 629 581 797 130 263 190 502 199 796 8 261 -18 446 -97 682 -100 298 -254 542 -486 768 -108 105 -2198 1781 -2329 1868 -95 62 -310 168 -415 204 -103 36 -218 65 -325 83 -109 18 -401 26 -509 14z"/>
    </g>
</svg>
